<svg width="24" height="23" viewBox="0 0 24 23" fill="none" xmlns="http://www.w3.org/2000/svg">
<g clip-path="url(#clip0_0_232)">
<path d="M21.8808 4.51384C22.0075 4.51384 22.1162 4.40146 22.1162 4.27035V2.19136C22.1162 2.06025 22.0075 1.94788 21.8808 1.94788H2.11925C1.99245 1.94788 1.88377 2.06025 1.88377 2.19136V16.0138C1.88377 16.1449 1.99245 16.2573 2.11925 16.2573H12.2989C12.4257 16.2573 12.5343 16.1449 12.5343 16.0138C12.5343 15.8827 12.4257 15.7704 12.2989 15.7704H2.35472V2.43485H10.1253L6.86491 5.80618C6.77434 5.89983 6.77434 6.04967 6.86491 6.14332C6.91925 6.1995 6.97359 6.21823 7.02792 6.21823C7.08226 6.21823 7.15472 6.1995 7.19094 6.14332L10.7774 2.43485H21.6453V4.27035C21.6453 4.40146 21.754 4.51384 21.8808 4.51384Z" fill="black"/>
<path d="M22.8226 0H1.17736C0.525283 0 0 0.54316 0 1.21743V16.9878C0 17.6621 0.525283 18.2052 1.17736 18.2052H9.6V19.6849L6.43019 21.127C6.33962 21.1645 6.28528 21.2581 6.28528 21.3518V22.7565C6.28528 22.8876 6.39396 23 6.52075 23H11.9909C12.1177 23 12.2264 22.8876 12.2264 22.7565C12.2264 22.6254 12.1177 22.513 11.9909 22.513H6.77434V21.5204L9.94415 20.0782C10.0347 20.0407 10.0891 19.9471 10.0891 19.8534V18.2052H12.317C12.4438 18.2052 12.5525 18.0928 12.5525 17.9617C12.5525 17.8306 12.4438 17.7182 12.317 17.7182H1.17736C0.796981 17.7182 0.470943 17.3998 0.470943 16.9878V1.21743C0.470943 0.824104 0.778868 0.486971 1.17736 0.486971H22.8226C23.203 0.486971 23.5291 0.805375 23.5291 1.21743V4.45765C23.5291 4.58876 23.6377 4.70114 23.7645 4.70114C23.8913 4.70114 24 4.58876 24 4.45765V1.21743C24 0.54316 23.4747 0 22.8226 0Z" fill="black"/>
<path d="M22.8226 5.73126H14.8891C14.237 5.73126 13.7117 6.27442 13.7117 6.94869V21.7826C13.7117 22.4568 14.237 23 14.8891 23H22.8226C23.4747 23 24 22.4568 24 21.7826V6.94869C24 6.27442 23.4747 5.73126 22.8226 5.73126ZM23.5291 21.7826C23.5291 22.1759 23.2211 22.513 22.8226 22.513H14.8891C14.5087 22.513 14.1826 22.1946 14.1826 21.7826V18.9544L20.3049 12.6425C20.3955 12.5489 20.3955 12.399 20.3049 12.3054C20.2143 12.2117 20.0694 12.2117 19.9789 12.3054L14.1826 18.2614V6.94869C14.1826 6.55537 14.4906 6.21823 14.8891 6.21823H22.8226C23.203 6.21823 23.5291 6.53664 23.5291 6.94869V21.7826Z" fill="black"/>
<path d="M20.5223 7.56679L16.8634 11.3502C16.7728 11.4438 16.7728 11.5937 16.8634 11.6873C16.9177 11.7435 16.9721 11.7622 17.0264 11.7622C17.0808 11.7622 17.1532 11.7435 17.1894 11.6873L20.8483 7.90392C20.9389 7.81027 20.9389 7.66044 20.8483 7.56679C20.7577 7.47314 20.6128 7.47314 20.5223 7.56679Z" fill="black"/>
<path d="M11.4113 4.70113L4.74566 11.5562C4.65509 11.6498 4.65509 11.7997 4.74566 11.8933C4.8 11.9495 4.85434 11.9682 4.90868 11.9682C4.96302 11.9682 5.03547 11.9495 5.0717 11.8933L11.7374 5.01953C11.8279 4.92589 11.8279 4.77605 11.7374 4.6824C11.6649 4.60748 11.5019 4.60748 11.4113 4.70113Z" fill="black"/>
</g>
<defs>
<clipPath id="clip0_0_232">
<rect width="24" height="23" fill="white"/>
</clipPath>
</defs>
</svg>
