<svg width="31" height="31" viewBox="0 0 31 31" fill="none" xmlns="http://www.w3.org/2000/svg">
<g clip-path="url(#clip0_0_211)">
<mask id="mask0_0_211" style="mask-type:luminance" maskUnits="userSpaceOnUse" x="0" y="0" width="31" height="31">
<path d="M31 0H0V31H31V0Z" fill="white"/>
</mask>
<g mask="url(#mask0_0_211)">
<mask id="mask1_0_211" style="mask-type:luminance" maskUnits="userSpaceOnUse" x="0" y="0" width="31" height="31">
<path d="M31 0H0V31H31V0Z" fill="white"/>
</mask>
<g mask="url(#mask1_0_211)">
<path d="M26.9958 22.2167C26.6083 22.2167 26.2208 22.3458 25.9625 22.6042L23.7667 21.0542C23.6375 20.925 23.5083 20.6667 23.5083 20.4083V18.7292H23.8958C26.2208 18.7292 28.2875 16.7917 28.2875 14.3375C28.2875 12.2708 26.8667 10.5917 24.9292 10.075H24.8C24.8 10.075 24.8 10.075 24.8 9.94585C24.8 9.94585 24.8 9.94585 24.8 9.81668C25.0583 8.91251 25.0583 8.00835 24.8 7.10418C24.2833 4.77918 22.3458 3.10001 20.0208 2.84168C18.0833 2.58335 16.275 3.35835 14.9833 4.90835C14.8542 5.03751 14.725 5.03751 14.725 4.90835C13.8208 4.39168 12.7875 4.00418 11.7542 4.00418C8.65418 4.00418 6.20001 6.45835 6.20001 9.55835V9.68751C6.20001 9.81668 6.07085 9.94585 5.94168 10.075C5.68335 10.3333 5.29585 10.4625 5.03751 10.5917C4.26251 10.9792 3.61668 11.625 3.35835 12.2708C2.97085 12.9167 2.84168 13.6917 2.84168 14.3375V14.4667C2.84168 14.5958 2.84168 14.5958 2.84168 14.5958C2.97085 16.7917 4.90835 18.6 7.10418 18.6H7.49168V20.2792C7.49168 20.5375 7.36251 20.7958 7.23335 20.925L5.16668 22.7333C4.90835 22.475 4.52085 22.2167 4.00418 22.2167C3.10001 22.2167 2.32501 22.9917 2.32501 23.8958C2.32501 24.8 3.10001 25.575 4.00418 25.575C4.90835 25.575 5.68335 24.8 5.68335 23.8958C5.68335 23.7667 5.68335 23.5083 5.55418 23.3792L7.62085 21.5708C8.00835 21.1833 8.13751 20.7958 8.13751 20.4083V18.7292H11.7542V20.4083C11.7542 20.6667 11.625 20.925 11.4958 21.0542L10.4625 21.9583C10.2042 22.2167 9.94584 22.7333 9.94584 23.1208C9.17084 23.25 8.65418 23.8958 8.65418 24.6708C8.65418 25.575 9.42918 26.35 10.3333 26.35C11.2375 26.35 12.0125 25.575 12.0125 24.6708C12.0125 23.8958 11.4958 23.25 10.7208 23.1208C10.7208 22.8625 10.85 22.6042 10.9792 22.475L11.8833 21.5708C12.2708 21.3125 12.4 20.7958 12.4 20.2792V18.6H15.1125V24.6708C14.3375 24.8 13.8208 25.4458 13.8208 26.2208C13.8208 27.125 14.5958 27.9 15.5 27.9C16.4042 27.9 17.1792 27.125 17.1792 26.2208C17.1792 25.4458 16.6625 24.8 15.8875 24.6708V18.6H18.6V20.2792C18.6 20.7958 18.7292 21.1833 19.1167 21.5708L20.0208 22.475C20.15 22.6042 20.2792 22.8625 20.2792 23.1208C19.5042 23.25 18.9875 23.8958 18.9875 24.6708C18.9875 25.575 19.7625 26.35 20.6667 26.35C21.5708 26.35 22.3458 25.575 22.3458 24.6708C22.3458 23.8958 21.8292 23.25 21.0542 23.1208C21.0542 22.7333 20.7958 22.2167 20.5375 21.9583L19.6333 21.0542C19.5042 20.925 19.375 20.6667 19.375 20.4083V18.7292H22.9917V20.4083C22.9917 20.925 23.1208 21.3125 23.5083 21.5708L25.7042 23.25C25.575 23.5083 25.575 23.6375 25.575 23.8958C25.575 24.8 26.35 25.575 27.2542 25.575C28.1583 25.575 28.9333 24.8 28.9333 23.8958C28.675 22.9917 27.9 22.2167 26.9958 22.2167ZM4.00418 24.8C3.48751 24.8 3.10001 24.4125 3.10001 23.8958C3.10001 23.3792 3.48751 22.9917 4.00418 22.9917C4.52085 22.9917 4.90835 23.3792 4.90835 23.8958C4.90835 24.4125 4.52085 24.8 4.00418 24.8ZM11.2375 24.6708C11.2375 25.1875 10.85 25.575 10.3333 25.575C9.81668 25.575 9.42918 25.1875 9.42918 24.6708C9.42918 24.1542 9.81668 23.7667 10.3333 23.7667C10.85 23.7667 11.2375 24.1542 11.2375 24.6708ZM16.4042 26.4792C16.4042 26.9958 16.0167 27.3833 15.5 27.3833C14.9833 27.3833 14.5958 26.9958 14.5958 26.4792C14.5958 25.9625 14.9833 25.575 15.5 25.575C16.0167 25.4458 16.4042 25.9625 16.4042 26.4792ZM21.5708 24.6708C21.5708 25.1875 21.1833 25.575 20.6667 25.575C20.15 25.575 19.7625 25.1875 19.7625 24.6708C19.7625 24.1542 20.15 23.7667 20.6667 23.7667C21.1833 23.7667 21.5708 24.1542 21.5708 24.6708ZM3.48751 14.4667C3.48751 14.2083 3.48751 13.5625 3.74585 12.7875C4.00418 12.1417 4.65001 11.4958 5.29585 11.1083C5.68335 10.9792 6.07085 10.85 6.58751 10.7208C9.30001 10.3333 10.4625 11.625 10.5917 11.625C10.7208 11.7542 10.9792 11.7542 11.1083 11.625C11.2375 11.4958 11.2375 11.2375 11.1083 11.1083C11.1083 11.1083 9.81668 9.68751 6.97501 9.94585C6.97501 9.81668 6.97501 9.81668 6.97501 9.68751V9.55835C6.97501 6.84585 9.17084 4.65001 11.8833 4.65001C12.7875 4.65001 13.6917 4.90835 14.4667 5.42501C14.8542 5.68335 15.3708 5.55418 15.7583 5.16668C16.7917 3.87501 18.4708 3.22918 20.15 3.35835C22.2167 3.61668 23.8958 5.03751 24.2833 7.10418C24.4125 7.87918 24.4125 8.65418 24.2833 9.42918C24.2833 9.42918 24.1542 10.5917 22.0875 12.5292C21.9583 12.6583 21.9583 12.9167 22.0875 13.0458C22.2167 13.175 22.2167 13.175 22.3458 13.175C22.475 13.175 22.475 13.175 22.6042 13.0458C23.7667 11.8833 24.4125 10.9792 24.6708 10.3333C24.6708 10.3333 24.8 10.3333 24.9292 10.4625C26.6083 10.85 27.6417 12.2708 27.6417 13.95C27.6417 15.8875 25.9625 17.5667 24.025 17.5667H7.23335C5.16668 17.9542 3.61668 16.4042 3.48751 14.4667ZM26.9958 24.8C26.4792 24.8 26.0917 24.4125 26.0917 23.8958C26.0917 23.3792 26.4792 22.9917 26.9958 22.9917C27.5125 22.9917 27.9 23.3792 27.9 23.8958C27.9 24.4125 27.5125 24.8 26.9958 24.8Z" fill="black"/>
</g>
</g>
</g>
<defs>
<clipPath id="clip0_0_211">
<rect width="31" height="31" fill="white"/>
</clipPath>
</defs>
</svg>
