<svg width="24" height="28" viewBox="0 0 24 28" fill="none" xmlns="http://www.w3.org/2000/svg">
<g clip-path="url(#clip0_0_222)">
<path d="M3.23078 5.13336H1.38462C0.830779 5.13336 0.461548 5.5067 0.461548 6.0667V21" stroke="#263238" stroke-miterlimit="10" stroke-linecap="round"/>
<path d="M23.5385 21V6.0667C23.5385 5.5067 23.1692 5.13336 22.6154 5.13336H20.7692" stroke="#263238" stroke-miterlimit="10" stroke-linecap="round"/>
<path d="M9.69233 23.8V25.6667C9.69233 26.6933 8.86156 27.5333 7.84617 27.5333H6.9231H17.0769H16.1539C15.1385 27.5333 14.3077 26.6933 14.3077 25.6667V23.8" stroke="#263238" stroke-miterlimit="10" stroke-linecap="round" stroke-linejoin="round"/>
<path d="M22.6154 23.8H1.38462C0.830779 23.8 0.461548 23.4267 0.461548 22.8667V21H23.5385V22.8667C23.5385 23.4267 23.1692 23.8 22.6154 23.8Z" stroke="#263238" stroke-miterlimit="10" stroke-linecap="round" stroke-linejoin="round"/>
<path d="M6.92309 2.42667C8.76924 2.61334 10.7077 1.86667 12 0.466675C13.6616 2.24001 16.2462 2.89334 18.5539 2.05334L18.9231 1.96001V11.9467C18.9231 13.3467 18 15.0267 16.8923 15.8667L12 19.1333L7.1077 15.8667C6.00001 15.12 5.07693 13.3467 5.07693 11.9467V1.96001" stroke="#263238" stroke-miterlimit="10" stroke-linecap="round" stroke-linejoin="round"/>
<path d="M16.1539 8.96003C16.1539 9.05336 16.1539 9.24003 16.1539 9.33336C16.1539 11.6667 14.3077 13.5334 12 13.5334C9.69231 13.5334 7.84616 11.6667 7.84616 9.33336C7.84616 7.00003 9.69231 5.13336 12 5.13336C12.6462 5.13336 13.2923 5.32003 13.8462 5.60003" stroke="#263238" stroke-miterlimit="10" stroke-linecap="round" stroke-linejoin="round"/>
<path d="M15.6923 6.72003L12 10.4534L10.1539 8.5867" stroke="#263238" stroke-miterlimit="10" stroke-linecap="round" stroke-linejoin="round"/>
</g>
<defs>
<clipPath id="clip0_0_222">
<rect width="24" height="28" fill="white"/>
</clipPath>
</defs>
</svg>
