<svg width="25" height="24" viewBox="0 0 25 24" fill="none" xmlns="http://www.w3.org/2000/svg">
<mask id="path-1-inside-1_67_4" fill="white">
<path d="M6.22594 5.00084H4.33808C4.19749 5.00084 4.07699 4.88033 4.07699 4.73975C4.07699 4.59916 4.19749 4.47866 4.33808 4.47866H6.22594C6.36653 4.47866 6.48703 4.59916 6.48703 4.73975C6.48703 4.88033 6.36653 5.00084 6.22594 5.00084Z"/>
<path d="M6.22594 7.23013H4.33808C4.19749 7.23013 4.07699 7.10962 4.07699 6.96904C4.07699 6.82845 4.19749 6.70795 4.33808 6.70795H6.22594C6.36653 6.70795 6.48703 6.82845 6.48703 6.96904C6.48703 7.10962 6.36653 7.23013 6.22594 7.23013Z"/>
<path d="M6.22594 9.43933H4.33808C4.19749 9.43933 4.07699 9.31883 4.07699 9.17824C4.07699 9.03766 4.19749 8.91716 4.33808 8.91716H6.22594C6.36653 8.91716 6.48703 9.03766 6.48703 9.17824C6.48703 9.31883 6.36653 9.43933 6.22594 9.43933Z"/>
<path d="M15.7255 5.00084H9.4795C9.33891 5.00084 9.21841 4.88033 9.21841 4.73975C9.21841 4.59916 9.33891 4.47866 9.4795 4.47866H15.7255C15.8661 4.47866 15.9866 4.59916 15.9866 4.73975C15.9866 4.88033 15.8661 5.00084 15.7255 5.00084Z"/>
<path d="M17.5531 7.23013H13.3757C13.2351 7.23013 13.1146 7.10962 13.1146 6.96904C13.1146 6.82845 13.2351 6.70795 13.3757 6.70795H17.5531C17.6937 6.70795 17.8142 6.82845 17.8142 6.96904C17.8142 7.10962 17.6937 7.23013 17.5531 7.23013Z"/>
<path d="M21.0678 9.43933H14.8418C14.7013 9.43933 14.5808 9.31883 14.5808 9.17824C14.5808 9.03766 14.7013 8.91716 14.8418 8.91716H21.0879C21.2285 8.91716 21.349 9.03766 21.349 9.17824C21.3289 9.31883 21.2285 9.43933 21.0678 9.43933Z"/>
<path d="M0.281172 23.8996C0.140586 23.8996 0.0401674 23.7992 0.0200837 23.6586C0 23.3975 0 23.2167 0.0200837 22.9557C0.0401674 22.5941 0.301255 22.3732 0.682845 22.3933C1.42594 22.3933 2.0887 21.8711 2.26946 21.1481C2.47029 20.4251 2.14895 19.6418 1.50628 19.2603C1.18494 19.0795 1.06444 18.7582 1.2251 18.4368C1.34561 18.1958 1.86778 17.2921 2.02845 17.051C2.22929 16.7498 2.57071 16.6895 2.89205 16.8904C3.53473 17.2519 4.35816 17.1515 4.90042 16.6092C5.42259 16.087 5.5431 15.2435 5.18159 14.6008C4.98075 14.2795 5.06109 13.9582 5.34226 13.7573C5.56318 13.6167 6.48703 13.0745 6.72803 12.954C7.04937 12.7933 7.37071 12.9138 7.55146 13.2351C7.93305 13.8778 8.69623 14.1992 9.41925 13.9983C10.1423 13.7975 10.6644 13.1347 10.6644 12.3916C10.6444 12.0301 10.8854 11.769 11.2268 11.749C11.4879 11.7289 12.5523 11.7289 12.8134 11.749C13.1749 11.769 13.3958 12.0301 13.3757 12.4117C13.3757 13.1548 13.8979 13.8176 14.6209 13.9983C15.3439 14.1992 16.1272 13.8778 16.5088 13.2351C16.6895 12.9138 17.0109 12.7933 17.3322 12.954C17.5732 13.0745 18.477 13.5967 18.718 13.7573C19.0192 13.9582 19.0795 14.2996 18.8787 14.6209C18.5172 15.2636 18.6176 16.087 19.1598 16.6293C19.682 17.1515 20.5255 17.272 21.1682 16.9105C21.4895 16.7096 21.8109 16.79 22.0117 17.0711C22.1523 17.2921 22.6946 18.2159 22.8151 18.4569C22.9757 18.7782 22.8552 19.0996 22.5339 19.2803C21.8912 19.6619 21.5699 20.4251 21.7707 21.1481C21.9715 21.8711 22.6343 22.3933 23.3774 22.3933C23.759 22.3732 24 22.6142 24.0201 22.9557C24.0402 23.2167 24.0402 23.3975 24.0201 23.6586C24.0201 23.7992 23.8795 23.9197 23.7389 23.8996C23.5983 23.8996 23.4778 23.759 23.4979 23.6184C23.518 23.3774 23.518 23.2368 23.4979 22.9757C23.4979 22.9155 23.4979 22.8954 23.3774 22.8954C22.3732 22.8954 21.5096 22.2126 21.2686 21.2686C21.0075 20.3247 21.4293 19.3004 22.2728 18.7983C22.3933 18.7381 22.3732 18.718 22.3531 18.6577C22.2527 18.4368 21.7305 17.5531 21.59 17.3322C21.5498 17.272 21.5498 17.2519 21.4494 17.3322C20.5858 17.8142 19.5013 17.6736 18.7983 16.9707C18.0954 16.2678 17.9548 15.1833 18.4368 14.3398C18.4971 14.2393 18.477 14.2192 18.4368 14.1791C18.236 14.0385 17.3523 13.5364 17.1113 13.4159C17.051 13.3958 17.031 13.3757 16.9707 13.4762C16.4686 14.3397 15.4444 14.7414 14.5004 14.5004C13.5163 14.2594 12.8536 13.3958 12.8536 12.4117C12.8536 12.2912 12.8335 12.2711 12.7732 12.2711C12.5322 12.251 11.5079 12.251 11.2469 12.2711C11.1866 12.2711 11.1665 12.2711 11.1665 12.3916C11.1665 13.3958 10.4837 14.2594 9.53975 14.5004C8.59582 14.7615 7.57155 14.3397 7.06946 13.4962C7.00921 13.3757 6.98912 13.3958 6.92887 13.4159C6.70795 13.5364 5.82427 14.0385 5.60335 14.1791C5.5431 14.2192 5.52301 14.2192 5.60335 14.3197C6.08536 15.1833 5.94477 16.2678 5.24184 16.9707C4.53891 17.6736 3.45439 17.8142 2.61088 17.3322C2.51046 17.272 2.49038 17.2921 2.45021 17.3322C2.30962 17.5331 1.80753 18.4167 1.68703 18.6577C1.66695 18.718 1.64686 18.7381 1.74728 18.7983C2.61088 19.3004 3.01255 20.3247 2.77155 21.2686C2.51046 22.2126 1.64686 22.8954 0.662762 22.8954C0.542259 22.8954 0.522176 22.9155 0.522176 22.9757C0.502092 23.2167 0.502092 23.3573 0.522176 23.6184C0.542259 23.759 0.441841 23.8795 0.281172 23.8996Z"/>
<path d="M15.1833 24C15.0427 24 14.9222 23.8795 14.9222 23.7389C14.9222 22.1322 13.6167 20.8067 11.99 20.8067C10.3833 20.8067 9.05774 22.1121 9.05774 23.7389C9.05774 23.8795 8.93724 24 8.79665 24C8.65607 24 8.53556 23.8795 8.53556 23.7389C8.53556 21.831 10.082 20.2845 11.99 20.2845C13.8979 20.2845 15.4444 21.831 15.4444 23.7389C15.4444 23.8795 15.3439 24 15.1833 24Z"/>
<path d="M19.2 24C19.0594 24 18.9389 23.8795 18.9389 23.7389C18.9389 19.923 15.8259 16.81 12.01 16.81C8.19414 16.81 5.08117 19.923 5.08117 23.7389C5.08117 23.8795 4.96067 24 4.82008 24C4.6795 24 4.559 23.8795 4.559 23.7389C4.559 19.6418 7.89289 16.2879 12.01 16.2879C16.1272 16.2879 19.4611 19.6218 19.4611 23.7389C19.4611 23.8795 19.3406 24 19.2 24Z"/>
<path d="M23.7389 16.0067C23.5983 16.0067 23.4778 15.8862 23.4778 15.7456V1.42594C23.4778 0.923849 23.0762 0.522176 22.5741 0.522176H1.42594C0.923849 0.522176 0.522176 0.923849 0.522176 1.42594V15.7456C0.522176 15.8862 0.401674 16.0067 0.261088 16.0067C0.120502 16.0067 0 15.8862 0 15.7456V1.42594C0 0.642678 0.642678 0 1.42594 0H22.554C23.3372 0 23.9799 0.642678 23.9799 1.42594V15.7456C24 15.8862 23.8795 16.0067 23.7389 16.0067Z"/>
</mask>
<path d="M6.22594 5.00084H4.33808C4.19749 5.00084 4.07699 4.88033 4.07699 4.73975C4.07699 4.59916 4.19749 4.47866 4.33808 4.47866H6.22594C6.36653 4.47866 6.48703 4.59916 6.48703 4.73975C6.48703 4.88033 6.36653 5.00084 6.22594 5.00084Z" fill="#4D4D4D"/>
<path d="M6.22594 7.23013H4.33808C4.19749 7.23013 4.07699 7.10962 4.07699 6.96904C4.07699 6.82845 4.19749 6.70795 4.33808 6.70795H6.22594C6.36653 6.70795 6.48703 6.82845 6.48703 6.96904C6.48703 7.10962 6.36653 7.23013 6.22594 7.23013Z" fill="#4D4D4D"/>
<path d="M6.22594 9.43933H4.33808C4.19749 9.43933 4.07699 9.31883 4.07699 9.17824C4.07699 9.03766 4.19749 8.91716 4.33808 8.91716H6.22594C6.36653 8.91716 6.48703 9.03766 6.48703 9.17824C6.48703 9.31883 6.36653 9.43933 6.22594 9.43933Z" fill="#4D4D4D"/>
<path d="M15.7255 5.00084H9.4795C9.33891 5.00084 9.21841 4.88033 9.21841 4.73975C9.21841 4.59916 9.33891 4.47866 9.4795 4.47866H15.7255C15.8661 4.47866 15.9866 4.59916 15.9866 4.73975C15.9866 4.88033 15.8661 5.00084 15.7255 5.00084Z" fill="#4D4D4D"/>
<path d="M17.5531 7.23013H13.3757C13.2351 7.23013 13.1146 7.10962 13.1146 6.96904C13.1146 6.82845 13.2351 6.70795 13.3757 6.70795H17.5531C17.6937 6.70795 17.8142 6.82845 17.8142 6.96904C17.8142 7.10962 17.6937 7.23013 17.5531 7.23013Z" fill="#4D4D4D"/>
<path d="M21.0678 9.43933H14.8418C14.7013 9.43933 14.5808 9.31883 14.5808 9.17824C14.5808 9.03766 14.7013 8.91716 14.8418 8.91716H21.0879C21.2285 8.91716 21.349 9.03766 21.349 9.17824C21.3289 9.31883 21.2285 9.43933 21.0678 9.43933Z" fill="#4D4D4D"/>
<path d="M0.281172 23.8996C0.140586 23.8996 0.0401674 23.7992 0.0200837 23.6586C0 23.3975 0 23.2167 0.0200837 22.9557C0.0401674 22.5941 0.301255 22.3732 0.682845 22.3933C1.42594 22.3933 2.0887 21.8711 2.26946 21.1481C2.47029 20.4251 2.14895 19.6418 1.50628 19.2603C1.18494 19.0795 1.06444 18.7582 1.2251 18.4368C1.34561 18.1958 1.86778 17.2921 2.02845 17.051C2.22929 16.7498 2.57071 16.6895 2.89205 16.8904C3.53473 17.2519 4.35816 17.1515 4.90042 16.6092C5.42259 16.087 5.5431 15.2435 5.18159 14.6008C4.98075 14.2795 5.06109 13.9582 5.34226 13.7573C5.56318 13.6167 6.48703 13.0745 6.72803 12.954C7.04937 12.7933 7.37071 12.9138 7.55146 13.2351C7.93305 13.8778 8.69623 14.1992 9.41925 13.9983C10.1423 13.7975 10.6644 13.1347 10.6644 12.3916C10.6444 12.0301 10.8854 11.769 11.2268 11.749C11.4879 11.7289 12.5523 11.7289 12.8134 11.749C13.1749 11.769 13.3958 12.0301 13.3757 12.4117C13.3757 13.1548 13.8979 13.8176 14.6209 13.9983C15.3439 14.1992 16.1272 13.8778 16.5088 13.2351C16.6895 12.9138 17.0109 12.7933 17.3322 12.954C17.5732 13.0745 18.477 13.5967 18.718 13.7573C19.0192 13.9582 19.0795 14.2996 18.8787 14.6209C18.5172 15.2636 18.6176 16.087 19.1598 16.6293C19.682 17.1515 20.5255 17.272 21.1682 16.9105C21.4895 16.7096 21.8109 16.79 22.0117 17.0711C22.1523 17.2921 22.6946 18.2159 22.8151 18.4569C22.9757 18.7782 22.8552 19.0996 22.5339 19.2803C21.8912 19.6619 21.5699 20.4251 21.7707 21.1481C21.9715 21.8711 22.6343 22.3933 23.3774 22.3933C23.759 22.3732 24 22.6142 24.0201 22.9557C24.0402 23.2167 24.0402 23.3975 24.0201 23.6586C24.0201 23.7992 23.8795 23.9197 23.7389 23.8996C23.5983 23.8996 23.4778 23.759 23.4979 23.6184C23.518 23.3774 23.518 23.2368 23.4979 22.9757C23.4979 22.9155 23.4979 22.8954 23.3774 22.8954C22.3732 22.8954 21.5096 22.2126 21.2686 21.2686C21.0075 20.3247 21.4293 19.3004 22.2728 18.7983C22.3933 18.7381 22.3732 18.718 22.3531 18.6577C22.2527 18.4368 21.7305 17.5531 21.59 17.3322C21.5498 17.272 21.5498 17.2519 21.4494 17.3322C20.5858 17.8142 19.5013 17.6736 18.7983 16.9707C18.0954 16.2678 17.9548 15.1833 18.4368 14.3398C18.4971 14.2393 18.477 14.2192 18.4368 14.1791C18.236 14.0385 17.3523 13.5364 17.1113 13.4159C17.051 13.3958 17.031 13.3757 16.9707 13.4762C16.4686 14.3397 15.4444 14.7414 14.5004 14.5004C13.5163 14.2594 12.8536 13.3958 12.8536 12.4117C12.8536 12.2912 12.8335 12.2711 12.7732 12.2711C12.5322 12.251 11.5079 12.251 11.2469 12.2711C11.1866 12.2711 11.1665 12.2711 11.1665 12.3916C11.1665 13.3958 10.4837 14.2594 9.53975 14.5004C8.59582 14.7615 7.57155 14.3397 7.06946 13.4962C7.00921 13.3757 6.98912 13.3958 6.92887 13.4159C6.70795 13.5364 5.82427 14.0385 5.60335 14.1791C5.5431 14.2192 5.52301 14.2192 5.60335 14.3197C6.08536 15.1833 5.94477 16.2678 5.24184 16.9707C4.53891 17.6736 3.45439 17.8142 2.61088 17.3322C2.51046 17.272 2.49038 17.2921 2.45021 17.3322C2.30962 17.5331 1.80753 18.4167 1.68703 18.6577C1.66695 18.718 1.64686 18.7381 1.74728 18.7983C2.61088 19.3004 3.01255 20.3247 2.77155 21.2686C2.51046 22.2126 1.64686 22.8954 0.662762 22.8954C0.542259 22.8954 0.522176 22.9155 0.522176 22.9757C0.502092 23.2167 0.502092 23.3573 0.522176 23.6184C0.542259 23.759 0.441841 23.8795 0.281172 23.8996Z" fill="#4D4D4D"/>
<path d="M15.1833 24C15.0427 24 14.9222 23.8795 14.9222 23.7389C14.9222 22.1322 13.6167 20.8067 11.99 20.8067C10.3833 20.8067 9.05774 22.1121 9.05774 23.7389C9.05774 23.8795 8.93724 24 8.79665 24C8.65607 24 8.53556 23.8795 8.53556 23.7389C8.53556 21.831 10.082 20.2845 11.99 20.2845C13.8979 20.2845 15.4444 21.831 15.4444 23.7389C15.4444 23.8795 15.3439 24 15.1833 24Z" fill="#4D4D4D"/>
<path d="M19.2 24C19.0594 24 18.9389 23.8795 18.9389 23.7389C18.9389 19.923 15.8259 16.81 12.01 16.81C8.19414 16.81 5.08117 19.923 5.08117 23.7389C5.08117 23.8795 4.96067 24 4.82008 24C4.6795 24 4.559 23.8795 4.559 23.7389C4.559 19.6418 7.89289 16.2879 12.01 16.2879C16.1272 16.2879 19.4611 19.6218 19.4611 23.7389C19.4611 23.8795 19.3406 24 19.2 24Z" fill="#4D4D4D"/>
<path d="M23.7389 16.0067C23.5983 16.0067 23.4778 15.8862 23.4778 15.7456V1.42594C23.4778 0.923849 23.0762 0.522176 22.5741 0.522176H1.42594C0.923849 0.522176 0.522176 0.923849 0.522176 1.42594V15.7456C0.522176 15.8862 0.401674 16.0067 0.261088 16.0067C0.120502 16.0067 0 15.8862 0 15.7456V1.42594C0 0.642678 0.642678 0 1.42594 0H22.554C23.3372 0 23.9799 0.642678 23.9799 1.42594V15.7456C24 15.8862 23.8795 16.0067 23.7389 16.0067Z" fill="#4D4D4D"/>
<path d="M6.22594 5.00084H4.33808C4.19749 5.00084 4.07699 4.88033 4.07699 4.73975C4.07699 4.59916 4.19749 4.47866 4.33808 4.47866H6.22594C6.36653 4.47866 6.48703 4.59916 6.48703 4.73975C6.48703 4.88033 6.36653 5.00084 6.22594 5.00084Z" stroke="black" stroke-width="6" mask="url(#path-1-inside-1_67_4)"/>
<path d="M6.22594 7.23013H4.33808C4.19749 7.23013 4.07699 7.10962 4.07699 6.96904C4.07699 6.82845 4.19749 6.70795 4.33808 6.70795H6.22594C6.36653 6.70795 6.48703 6.82845 6.48703 6.96904C6.48703 7.10962 6.36653 7.23013 6.22594 7.23013Z" stroke="black" stroke-width="6" mask="url(#path-1-inside-1_67_4)"/>
<path d="M6.22594 9.43933H4.33808C4.19749 9.43933 4.07699 9.31883 4.07699 9.17824C4.07699 9.03766 4.19749 8.91716 4.33808 8.91716H6.22594C6.36653 8.91716 6.48703 9.03766 6.48703 9.17824C6.48703 9.31883 6.36653 9.43933 6.22594 9.43933Z" stroke="black" stroke-width="6" mask="url(#path-1-inside-1_67_4)"/>
<path d="M15.7255 5.00084H9.4795C9.33891 5.00084 9.21841 4.88033 9.21841 4.73975C9.21841 4.59916 9.33891 4.47866 9.4795 4.47866H15.7255C15.8661 4.47866 15.9866 4.59916 15.9866 4.73975C15.9866 4.88033 15.8661 5.00084 15.7255 5.00084Z" stroke="black" stroke-width="6" mask="url(#path-1-inside-1_67_4)"/>
<path d="M17.5531 7.23013H13.3757C13.2351 7.23013 13.1146 7.10962 13.1146 6.96904C13.1146 6.82845 13.2351 6.70795 13.3757 6.70795H17.5531C17.6937 6.70795 17.8142 6.82845 17.8142 6.96904C17.8142 7.10962 17.6937 7.23013 17.5531 7.23013Z" stroke="black" stroke-width="6" mask="url(#path-1-inside-1_67_4)"/>
<path d="M21.0678 9.43933H14.8418C14.7013 9.43933 14.5808 9.31883 14.5808 9.17824C14.5808 9.03766 14.7013 8.91716 14.8418 8.91716H21.0879C21.2285 8.91716 21.349 9.03766 21.349 9.17824C21.3289 9.31883 21.2285 9.43933 21.0678 9.43933Z" stroke="black" stroke-width="6" mask="url(#path-1-inside-1_67_4)"/>
<path d="M0.281172 23.8996C0.140586 23.8996 0.0401674 23.7992 0.0200837 23.6586C0 23.3975 0 23.2167 0.0200837 22.9557C0.0401674 22.5941 0.301255 22.3732 0.682845 22.3933C1.42594 22.3933 2.0887 21.8711 2.26946 21.1481C2.47029 20.4251 2.14895 19.6418 1.50628 19.2603C1.18494 19.0795 1.06444 18.7582 1.2251 18.4368C1.34561 18.1958 1.86778 17.2921 2.02845 17.051C2.22929 16.7498 2.57071 16.6895 2.89205 16.8904C3.53473 17.2519 4.35816 17.1515 4.90042 16.6092C5.42259 16.087 5.5431 15.2435 5.18159 14.6008C4.98075 14.2795 5.06109 13.9582 5.34226 13.7573C5.56318 13.6167 6.48703 13.0745 6.72803 12.954C7.04937 12.7933 7.37071 12.9138 7.55146 13.2351C7.93305 13.8778 8.69623 14.1992 9.41925 13.9983C10.1423 13.7975 10.6644 13.1347 10.6644 12.3916C10.6444 12.0301 10.8854 11.769 11.2268 11.749C11.4879 11.7289 12.5523 11.7289 12.8134 11.749C13.1749 11.769 13.3958 12.0301 13.3757 12.4117C13.3757 13.1548 13.8979 13.8176 14.6209 13.9983C15.3439 14.1992 16.1272 13.8778 16.5088 13.2351C16.6895 12.9138 17.0109 12.7933 17.3322 12.954C17.5732 13.0745 18.477 13.5967 18.718 13.7573C19.0192 13.9582 19.0795 14.2996 18.8787 14.6209C18.5172 15.2636 18.6176 16.087 19.1598 16.6293C19.682 17.1515 20.5255 17.272 21.1682 16.9105C21.4895 16.7096 21.8109 16.79 22.0117 17.0711C22.1523 17.2921 22.6946 18.2159 22.8151 18.4569C22.9757 18.7782 22.8552 19.0996 22.5339 19.2803C21.8912 19.6619 21.5699 20.4251 21.7707 21.1481C21.9715 21.8711 22.6343 22.3933 23.3774 22.3933C23.759 22.3732 24 22.6142 24.0201 22.9557C24.0402 23.2167 24.0402 23.3975 24.0201 23.6586C24.0201 23.7992 23.8795 23.9197 23.7389 23.8996C23.5983 23.8996 23.4778 23.759 23.4979 23.6184C23.518 23.3774 23.518 23.2368 23.4979 22.9757C23.4979 22.9155 23.4979 22.8954 23.3774 22.8954C22.3732 22.8954 21.5096 22.2126 21.2686 21.2686C21.0075 20.3247 21.4293 19.3004 22.2728 18.7983C22.3933 18.7381 22.3732 18.718 22.3531 18.6577C22.2527 18.4368 21.7305 17.5531 21.59 17.3322C21.5498 17.272 21.5498 17.2519 21.4494 17.3322C20.5858 17.8142 19.5013 17.6736 18.7983 16.9707C18.0954 16.2678 17.9548 15.1833 18.4368 14.3398C18.4971 14.2393 18.477 14.2192 18.4368 14.1791C18.236 14.0385 17.3523 13.5364 17.1113 13.4159C17.051 13.3958 17.031 13.3757 16.9707 13.4762C16.4686 14.3397 15.4444 14.7414 14.5004 14.5004C13.5163 14.2594 12.8536 13.3958 12.8536 12.4117C12.8536 12.2912 12.8335 12.2711 12.7732 12.2711C12.5322 12.251 11.5079 12.251 11.2469 12.2711C11.1866 12.2711 11.1665 12.2711 11.1665 12.3916C11.1665 13.3958 10.4837 14.2594 9.53975 14.5004C8.59582 14.7615 7.57155 14.3397 7.06946 13.4962C7.00921 13.3757 6.98912 13.3958 6.92887 13.4159C6.70795 13.5364 5.82427 14.0385 5.60335 14.1791C5.5431 14.2192 5.52301 14.2192 5.60335 14.3197C6.08536 15.1833 5.94477 16.2678 5.24184 16.9707C4.53891 17.6736 3.45439 17.8142 2.61088 17.3322C2.51046 17.272 2.49038 17.2921 2.45021 17.3322C2.30962 17.5331 1.80753 18.4167 1.68703 18.6577C1.66695 18.718 1.64686 18.7381 1.74728 18.7983C2.61088 19.3004 3.01255 20.3247 2.77155 21.2686C2.51046 22.2126 1.64686 22.8954 0.662762 22.8954C0.542259 22.8954 0.522176 22.9155 0.522176 22.9757C0.502092 23.2167 0.502092 23.3573 0.522176 23.6184C0.542259 23.759 0.441841 23.8795 0.281172 23.8996Z" stroke="black" stroke-width="6" mask="url(#path-1-inside-1_67_4)"/>
<path d="M15.1833 24C15.0427 24 14.9222 23.8795 14.9222 23.7389C14.9222 22.1322 13.6167 20.8067 11.99 20.8067C10.3833 20.8067 9.05774 22.1121 9.05774 23.7389C9.05774 23.8795 8.93724 24 8.79665 24C8.65607 24 8.53556 23.8795 8.53556 23.7389C8.53556 21.831 10.082 20.2845 11.99 20.2845C13.8979 20.2845 15.4444 21.831 15.4444 23.7389C15.4444 23.8795 15.3439 24 15.1833 24Z" stroke="black" stroke-width="6" mask="url(#path-1-inside-1_67_4)"/>
<path d="M19.2 24C19.0594 24 18.9389 23.8795 18.9389 23.7389C18.9389 19.923 15.8259 16.81 12.01 16.81C8.19414 16.81 5.08117 19.923 5.08117 23.7389C5.08117 23.8795 4.96067 24 4.82008 24C4.6795 24 4.559 23.8795 4.559 23.7389C4.559 19.6418 7.89289 16.2879 12.01 16.2879C16.1272 16.2879 19.4611 19.6218 19.4611 23.7389C19.4611 23.8795 19.3406 24 19.2 24Z" stroke="black" stroke-width="6" mask="url(#path-1-inside-1_67_4)"/>
<path d="M23.7389 16.0067C23.5983 16.0067 23.4778 15.8862 23.4778 15.7456V1.42594C23.4778 0.923849 23.0762 0.522176 22.5741 0.522176H1.42594C0.923849 0.522176 0.522176 0.923849 0.522176 1.42594V15.7456C0.522176 15.8862 0.401674 16.0067 0.261088 16.0067C0.120502 16.0067 0 15.8862 0 15.7456V1.42594C0 0.642678 0.642678 0 1.42594 0H22.554C23.3372 0 23.9799 0.642678 23.9799 1.42594V15.7456C24 15.8862 23.8795 16.0067 23.7389 16.0067Z" stroke="black" stroke-width="6" mask="url(#path-1-inside-1_67_4)"/>
</svg>
