<svg width="24" height="24" viewBox="0 0 24 24" fill="none" xmlns="http://www.w3.org/2000/svg">
<g clip-path="url(#clip0_0_270)">
<path d="M12.5714 12.381H11.4286C11.3333 12.381 11.2381 12.3238 11.2 12.2286L10.4762 10.6286C10.2857 10.5714 10.1143 10.4952 9.9238 10.4L8.2857 11.0286C8.19047 11.0667 8.09523 11.0476 8.01904 10.9714L7.19999 10.1524C7.1238 10.0762 7.10475 9.98095 7.14285 9.88571L7.77142 8.24762C7.67618 8.07619 7.59999 7.88571 7.54285 7.69524L5.94285 6.97143C5.84761 6.93333 5.79047 6.8381 5.79047 6.74286V5.6C5.79047 5.50476 5.84761 5.40952 5.94285 5.37143L7.54285 4.64762C7.59999 4.45714 7.67618 4.28571 7.77142 4.09524L7.16189 2.47619C7.1238 2.38095 7.14285 2.28571 7.21904 2.20952L8.03809 1.39048C8.11428 1.31429 8.20951 1.29524 8.30475 1.33333L9.94285 1.9619C10.1143 1.86667 10.3048 1.79048 10.4952 1.73333L11.219 0.133333C11.2381 0.0571429 11.3333 0 11.4286 0H12.5714C12.6667 0 12.7619 0.0571429 12.8 0.152381L13.5238 1.75238C13.7143 1.80952 13.8857 1.88571 14.0762 1.98095L15.7143 1.35238C15.8095 1.31429 15.9048 1.33333 15.9809 1.40952L16.8 2.22857C16.8762 2.30476 16.8952 2.4 16.8571 2.49524L16.2286 4.13333C16.3238 4.30476 16.4 4.49524 16.4571 4.68571L18.0571 5.40952C18.1524 5.44762 18.2095 5.54286 18.2095 5.6381V6.78095C18.2095 6.87619 18.1524 6.97143 18.0571 7.00952L16.4571 7.73333C16.4 7.92381 16.3238 8.09524 16.2286 8.28571L16.8571 9.92381C16.8952 10.019 16.8762 10.1143 16.8 10.1905L15.9809 11.0095C15.9048 11.0857 15.8095 11.1048 15.7143 11.0667L14.0762 10.4381C13.9048 10.5333 13.7143 10.6095 13.5238 10.6667L12.8 12.2667C12.7619 12.3238 12.6667 12.381 12.5714 12.381ZM11.5809 11.8857H12.419L13.1238 10.3238C13.1619 10.2667 13.2 10.2095 13.2762 10.1905C13.5048 10.1143 13.7333 10.019 13.9428 9.90476C14 9.86667 14.0762 9.86667 14.1524 9.88571L15.7524 10.4952L16.3428 9.90476L15.7333 8.30476C15.7143 8.24762 15.7143 8.17143 15.7524 8.09524C15.8667 7.88571 15.9619 7.65714 16.0381 7.42857C16.0571 7.35238 16.1143 7.31429 16.1714 7.27619L17.7333 6.57143V5.73333L16.1714 5.02857C16.1143 4.99048 16.0571 4.95238 16.0381 4.87619C15.9619 4.64762 15.8667 4.41905 15.7524 4.20952C15.7143 4.15238 15.7143 4.07619 15.7333 4L16.3428 2.4L15.7524 1.80952L14.1333 2.47619C14.0762 2.49524 14 2.49524 13.9238 2.45714C13.7143 2.34286 13.4857 2.24762 13.2571 2.17143C13.1809 2.15238 13.1428 2.09524 13.1048 2.0381L12.4 0.47619H11.5619L10.8571 2.0381C10.819 2.09524 10.7809 2.15238 10.7048 2.17143C10.4762 2.24762 10.2476 2.34286 10.0381 2.45714C9.98094 2.49524 9.90475 2.49524 9.82856 2.47619L8.22856 1.86667L7.63809 2.45714L8.24761 4.05714C8.26666 4.11429 8.26666 4.19048 8.22856 4.26667C8.11428 4.47619 8.01904 4.70476 7.94285 4.93333C7.9238 5.00952 7.86666 5.04762 7.80951 5.08571L6.24761 5.79048V6.62857L7.80951 7.33333C7.86666 7.37143 7.9238 7.40952 7.94285 7.48571C8.01904 7.71429 8.11428 7.94286 8.22856 8.15238C8.26666 8.20952 8.26666 8.28572 8.24761 8.36191L7.63809 9.9619L8.22856 10.5524L9.82856 9.94286C9.8857 9.92381 9.96189 9.92381 10.0381 9.9619C10.2476 10.0762 10.4762 10.1714 10.7048 10.2476C10.7809 10.2667 10.819 10.3238 10.8571 10.381L11.5809 11.8857Z" fill="black"/>
<path d="M12 8.62857C10.6476 8.62857 9.56189 7.54286 9.56189 6.19048C9.56189 4.83809 10.6476 3.75238 12 3.75238C13.3524 3.75238 14.4381 4.83809 14.4381 6.19048C14.4381 7.54286 13.3524 8.62857 12 8.62857ZM12 4.24762C10.9333 4.24762 10.0571 5.12381 10.0571 6.19048C10.0571 7.25714 10.9333 8.13333 12 8.13333C13.0667 8.13333 13.9428 7.25714 13.9428 6.19048C13.9428 5.12381 13.0667 4.24762 12 4.24762Z" fill="black"/>
<path d="M18.2476 24C15.7333 24 13.4857 22.2286 12 20.6857C10.5143 22.2476 8.26667 24 5.75238 24C2.59048 24 0 21.4286 0 18.2476C0 15.0667 2.59048 12.4952 5.75238 12.4952C8.26667 12.4952 10.5143 14.2667 12 15.8095C13.4857 14.2476 15.7333 12.4952 18.2476 12.4952C21.4286 12.4952 24 15.0857 24 18.2476C24 21.4095 21.4286 24 18.2476 24ZM12.1905 20.1524C13.3524 21.4095 15.6762 23.5048 18.2476 23.5048C21.1429 23.5048 23.5048 21.1429 23.5048 18.2476C23.5048 15.3524 21.1429 12.9714 18.2476 12.9714C15.7905 12.9714 13.5429 14.9143 12.3429 16.1714L13.7333 17.8667C14.6286 16.9143 16.4952 15.1429 18.2476 15.1429C19.9619 15.1429 21.3524 16.5333 21.3524 18.2476C21.3524 19.9619 19.9429 21.3333 18.2476 21.3333C16.3429 21.3333 14.3238 19.2762 13.5429 18.4L11.8286 16.3238C10.6667 15.0667 8.34286 12.9714 5.77143 12.9714C2.85714 12.9714 0.495238 15.3333 0.495238 18.2476C0.495238 21.1619 2.85714 23.5048 5.75238 23.5048C8.20952 23.5048 10.4571 21.5619 11.6571 20.3048L10.2857 18.6286C9.39048 19.581 7.52381 21.3524 5.77143 21.3524C4.05714 21.3524 2.66667 19.9619 2.66667 18.2476C2.66667 16.5333 4.05714 15.1429 5.77143 15.1429C7.67619 15.1429 9.69524 17.2 10.4762 18.0762L12.1905 20.1524ZM14.0571 18.2476C14.781 19.0286 16.6286 20.8571 18.2476 20.8571C19.6762 20.8571 20.8571 19.6952 20.8571 18.2476C20.8571 16.8 19.6952 15.6381 18.2476 15.6381C16.6286 15.6381 14.781 17.4667 14.0571 18.2476ZM5.75238 15.6381C4.32381 15.6381 3.14286 16.8 3.14286 18.2476C3.14286 19.6952 4.30476 20.8571 5.75238 20.8571C7.37143 20.8571 9.21905 19.0476 9.94286 18.2476C9.2381 17.4667 7.39048 15.6381 5.75238 15.6381Z" fill="black"/>
</g>
<defs>
<clipPath id="clip0_0_270">
<rect width="24" height="24" fill="white"/>
</clipPath>
</defs>
</svg>
